<svg xmlns="http://www.w3.org/2000/svg" xmlns:xlink="http://www.w3.org/1999/xlink" version="1.1" width="1000" height="1000" viewBox="0 0 1000 1000" xml:space="preserve">
<desc>Created with Fabric.js 3.5.0</desc>
<defs>
</defs>
<rect x="0" y="0" width="100%" height="100%" fill="#ffffff"/>
<g transform="matrix(1 0 0 1 500 550.5)" style="" id="147255">
		
<path xml:space="preserve" font-family="Anton" font-size="101" style="stroke: none; stroke-width: 0; stroke-dasharray: none; stroke-linecap: butt; stroke-dashoffset: 0; stroke-linejoin: miter; stroke-miterlimit: 4; is-custom-font: none; font-file-url: none; fill: rgb(255,255,255); fill-rule: nonzero; opacity: 1; white-space: pre;" d="M-179.39 31.73L-196.45 31.73L-196.45-55.07L-173.52-55.07Q-166.32-55.07-162.10-51.86Q-157.89-48.66-156.06-42.74Q-154.24-36.82-154.24-28.64L-154.24-28.64Q-154.24-20.74-155.77-14.90Q-157.29-9.06-161.22-5.85Q-165.14-2.65-172.34-2.65L-172.34-2.65L-179.39-2.65L-179.39 31.73ZM-179.39-39.24L-179.39-18.23L-178.40-18.23Q-173.57-18.23-172.48-20.94Q-171.40-23.65-171.40-28.93L-171.40-28.93Q-171.40-33.86-172.46-36.55Q-173.52-39.24-177.47-39.24L-177.47-39.24L-179.39-39.24ZM-113.55 31.73L-148.76 31.73L-148.76-55.07L-131.40-55.07L-131.40 16.93L-113.55 16.93L-113.55 31.73ZM-94.12 31.73L-110.99 31.73L-102.60-55.07L-73.16-55.07L-64.93 31.73L-81.35 31.73L-82.58 17.72L-93.04 17.72L-94.12 31.73ZM-88.50-40.27L-91.80 3.86L-83.91 3.86L-87.71-40.27L-88.50-40.27ZM-35.09 31.73L-51.46 31.73L-51.46 3.17L-65.32-55.07L-48.11-55.07L-43.28-25.68L-38.44-55.07L-21.28-55.07L-35.09 3.17L-35.09 31.73ZM24.04 31.73L6.78 31.73L6.78-55.07L24.04-55.07L24.04-24.05L32.23-24.05L32.23-55.07L49.49-55.07L49.49 31.73L32.23 31.73L32.23-7.63L24.04-7.63L24.04 31.73ZM71.68 31.73L54.82 31.73L63.20-55.07L92.64-55.07L100.88 31.73L84.45 31.73L83.22 17.72L72.77 17.72L71.68 31.73ZM77.30-40.27L74.00 3.86L81.89 3.86L78.09-40.27L77.30-40.27ZM123.76 31.73L106.20 31.73L106.20-55.07L132.83-55.07Q139.49-55.07 142.89-52.04Q146.30-49.00 147.46-43.55Q148.61-38.10 148.61-30.76L148.61-30.76Q148.61-23.65 146.81-19.41Q145.01-15.17 140.03-13.54L140.03-13.54Q144.13-12.71 145.78-9.48Q147.43-6.25 147.43-1.12L147.43-1.12L147.43 31.73L130.32 31.73L130.32-2.25Q130.32-6.05 128.77-6.96Q127.21-7.87 123.76-7.87L123.76-7.87L123.76 31.73ZM123.86-38.99L123.86-22.91L128.05-22.91Q131.65-22.91 131.65-30.76L131.65-30.76Q131.65-35.84 130.86-37.41Q130.07-38.99 127.90-38.99L127.90-38.99L123.86-38.99ZM177.61 31.73L154.34 31.73L154.34-55.07L178.20-55.07Q187.57-55.07 192.31-49.87Q197.04-44.66 197.04-34.65L197.04-34.65L197.04 5.98Q197.04 18.31 192.73 25.02Q188.41 31.73 177.61 31.73L177.61 31.73ZM171.79-39.88L171.79 16.39L174.80 16.39Q179.59 16.39 179.59 11.75L179.59 11.75L179.59-33.02Q179.59-37.36 178.43-38.62Q177.27-39.88 173.72-39.88L173.72-39.88L171.79-39.88Z"/></g>
<g transform="matrix(1 0 0 1 500 733.7147)" style="filter: url(#SVGID_449);" id="168965">
<filter id="SVGID_449" y="-23.330000000000002%" height="146.66%" x="-22.07%" width="144.14%">
	<feGaussianBlur in="SourceAlpha" stdDeviation="5"/>
	<feOffset dx="10" dy="10" result="oBlur"/>
	<feFlood flood-color="rgb(0,0,0)" flood-opacity="1"/>
	<feComposite in2="oBlur" operator="in"/>
	<feMerge>
		<feMergeNode/>
		<feMergeNode in="SourceGraphic"/>
	</feMerge>
</filter>
		
<path xml:space="preserve" font-family="Bubblegum Sans" font-size="190" font-style="italic" font-weight="normal" style="stroke: none; stroke-width: 1; stroke-dasharray: none; stroke-linecap: butt; stroke-dashoffset: 0; stroke-linejoin: miter; stroke-miterlimit: 4; is-custom-font: none; font-file-url: none; fill: rgb(71,66,66); fill-rule: nonzero; opacity: 1; white-space: pre;" d="M-201.88-127.27L-201.88-127.27L-207.77-127.84Q-208.15-129.74-208.15-153.78Q-208.15-177.81-207.96-187.50L-207.96-187.50Q-211.19-190.54-214.32-196.91Q-217.46-203.27-217.46-207.83L-217.46-207.83Q-217.46-208.02-207.58-208.40L-207.58-208.40Q-207.38-216.38-207.38-226.83Q-207.38-237.28-207.58-237.47L-207.58-237.47Q-209.67-239.56-212.99-247.45Q-216.31-255.33-216.31-257.61L-216.31-257.61Q-214.22-259.70-150.38-259.70L-150.38-259.70Q-134.43-259.70-134.43-258.94L-134.43-258.94Q-134.43-254.95-136.23-250.20Q-138.04-245.45-140.03-242.70Q-142.03-239.94-142.59-240.13Q-143.17-240.32-149.44-240.32Q-155.71-240.32-168.81-239.47Q-181.93-238.61-183.06-237.57Q-184.21-236.52-184.21-216.95L-184.21-216.95L-184.02-208.97Q-166.16-209.35-156.66-209.35Q-147.16-209.35-147.16-208.78L-147.16-208.78Q-147.16-201.37-151.72-193.20L-151.72-193.20Q-153.24-190.35-153.62-190.35L-153.62-190.35L-155.51-190.35Q-161.59-190.35-172.43-189.40Q-183.25-188.45-183.82-187.88Q-184.40-187.31-184.40-164.13Q-184.40-140.95-181.93-132.59L-181.93-132.59Q-181.93-130.12-189.24-128.70Q-196.56-127.27-201.88-127.27ZM-82.94-127.84L-82.94-127.84Q-111.25-127.84-124.83-144.18Q-138.42-160.52-138.42-185.22L-138.42-185.22Q-138.42-197.19-135.56-207.64Q-132.72-218.09-130.25-222.46Q-127.78-226.83-126.26-227.69Q-124.74-228.54-114.29-228.54L-114.29-228.54L-110.68-228.54Q-110.68-238.04-106.97-245.07Q-103.27-252.10-97.38-255.52L-97.38-255.52Q-86.36-261.79-76.48-261.79L-76.48-261.79Q-23.66-261.79-23.66-195.29L-23.66-195.29Q-23.66-174.58-30.69-158.43L-30.69-158.43Q-34.68-149.31-41.14-142.76Q-47.60-136.20-58.33-132.02Q-69.07-127.84-82.94-127.84ZM-48.17-196.81L-48.17-196.81Q-48.17-241.46-74.77-241.46L-74.77-241.46Q-82.37-241.46-86.45-237.09Q-90.54-232.72-90.54-225.98Q-90.54-219.23-86.26-210.11Q-81.99-200.99-77.62-195.67L-77.62-195.67L-73.44-190.35Q-73.44-188.07-80.47-186.08Q-87.50-184.08-91.68-184.08L-91.68-184.08Q-92.63-184.08-95.57-187.69Q-98.52-191.30-102.41-198.81Q-106.31-206.31-108.02-214.67L-108.02-214.67Q-110.87-211.82-112.58-203.08Q-114.29-194.34-114.29-186.17L-114.29-186.17Q-114.29-170.21-105.36-158.91Q-96.43-147.60-82.75-147.60L-82.75-147.60Q-48.17-147.60-48.17-196.81ZM41.32-127.84L41.32-127.84Q13.01-127.84-0.57-144.18Q-14.16-160.52-14.16-185.22L-14.16-185.22Q-14.16-197.19-11.31-207.64Q-8.46-218.09-5.99-222.46Q-3.52-226.83-2.00-227.69Q-0.48-228.54 9.97-228.54L9.97-228.54L13.58-228.54Q13.58-238.04 17.29-245.07Q20.99-252.10 26.88-255.52L26.88-255.52Q37.90-261.79 47.78-261.79L47.78-261.79Q100.60-261.79 100.60-195.29L100.60-195.29Q100.60-174.58 93.57-158.43L93.57-158.43Q89.58-149.31 83.13-142.76Q76.66-136.20 65.93-132.02Q55.19-127.84 41.32-127.84ZM76.09-196.81L76.09-196.81Q76.09-241.46 49.49-241.46L49.49-241.46Q41.89-241.46 37.81-237.09Q33.72-232.72 33.72-225.98Q33.72-219.23 38.00-210.11Q42.27-200.99 46.64-195.67L46.64-195.67L50.82-190.35Q50.82-188.07 43.79-186.08Q36.76-184.08 32.58-184.08L32.58-184.08Q31.63-184.08 28.69-187.69Q25.74-191.30 21.85-198.81Q17.95-206.31 16.24-214.67L16.24-214.67Q13.39-211.82 11.68-203.08Q9.97-194.34 9.97-186.17L9.97-186.17Q9.97-170.21 18.90-158.91Q27.83-147.60 41.51-147.60L41.51-147.60Q76.09-147.60 76.09-196.81ZM180.97-166.03Q186.48-171.54 190.28-180.95Q194.08-190.35 194.08-200.99Q194.08-211.63 190.28-219.14Q186.48-226.64 181.35-230.54Q176.22-234.43 169.57-236.90L169.57-236.90Q159.31-240.70 150.00-240.70L150.00-240.70Q147.53-240.70 147.53-240.51L147.53-240.51Q146.20-239.18 146.20-195.67Q146.20-152.16 147.53-150.83L147.53-150.83Q147.91-150.45 150.29-150.45Q152.66-150.45 157.51-151.78Q162.35-153.11 168.91-156.82Q175.46-160.52 180.97-166.03ZM122.07-162.42L122.07-162.42L122.64-237.47Q120.55-240.70 117.32-248.97Q114.09-257.23 114.09-258.85Q114.09-260.46 114.28-260.65L114.28-260.65Q116.18-262.55 136.70-262.55L136.70-262.55Q176.22-262.55 197.79-246.02Q219.35-229.49 219.35-201.75L219.35-201.75Q219.35-188.07 214.98-176.58Q210.61-165.08 203.30-157.20Q195.98-149.31 186.96-143.33Q177.93-137.34 167.86-133.92L167.86-133.92Q148.10-127.46 131.95-127.46L131.95-127.46Q124.35-127.46 123.21-128.60Q122.07-129.74 122.07-162.42Z"/><path xml:space="preserve" font-family="Bubblegum Sans" font-size="190" font-style="italic" font-weight="normal" style="stroke: none; stroke-width: 1; stroke-dasharray: none; stroke-linecap: butt; stroke-dashoffset: 0; stroke-linejoin: miter; stroke-miterlimit: 4; is-custom-font: none; font-file-url: none; fill: rgb(71,66,66); fill-rule: nonzero; opacity: 1; white-space: pre;" d="M-334.69 27.20Q-329.18 21.69-325.38 12.28Q-321.58 2.88-321.58-7.76Q-321.58-18.40-325.38-25.91Q-329.18-33.41-334.31-37.31Q-339.44-41.20-346.09-43.67L-346.09-43.67Q-356.35-47.47-365.66-47.47L-365.66-47.47Q-368.13-47.47-368.13-47.28L-368.13-47.28Q-369.46-45.95-369.46-2.44Q-369.46 41.07-368.13 42.40L-368.13 42.40Q-367.75 42.78-365.37 42.78Q-363.00 42.78-358.15 41.45Q-353.31 40.12-346.75 36.41Q-340.20 32.71-334.69 27.20ZM-393.59 30.81L-393.59 30.81L-393.02-44.24Q-395.11-47.47-398.34-55.74Q-401.56-64.00-401.56-65.62Q-401.56-67.23-401.38-67.42L-401.38-67.42Q-399.48-69.32-378.96-69.32L-378.96-69.32Q-339.44-69.32-317.87-52.79Q-296.31-36.26-296.31-8.52L-296.31-8.52Q-296.31 5.16-300.68 16.65Q-305.05 28.15-312.36 36.03Q-319.68 43.92-328.70 49.90Q-337.73 55.89-347.80 59.31L-347.80 59.31Q-367.56 65.77-383.71 65.77L-383.71 65.77Q-391.31 65.77-392.44 64.63Q-393.59 63.49-393.59 30.81ZM-272.94-14.60L-272.94-14.60L-272.75-35.12Q-272.75-43.29-273.13-44.05L-273.13-44.05Q-275.22-46.14-278.54-54.12Q-281.87-62.10-281.87-64.38L-281.87-64.38Q-279.78-66.47-215.18-66.47L-215.18-66.47Q-199.22-66.47-199.22-65.71L-199.22-65.71Q-199.22-61.72-201.02-56.97Q-202.83-52.22-204.82-49.37Q-206.81-46.52-207.67-46.81Q-208.53-47.09-215.46-47.09Q-222.40-47.09-234.75-46.24Q-247.10-45.38-248.24-44.24Q-249.38-43.10-249.38-23.34L-249.38-23.34L-249.19-15.36Q-241.59-15.55-226.77-15.55Q-211.95-15.55-211.95-14.98L-211.95-14.98Q-211.95-8.14-216.51 0.60L-216.51 0.60Q-218.22 3.64-218.60 3.45L-218.60 3.45Q-223.54 3.45-235.51 4.30Q-247.48 5.16-249.38 6.30L-249.38 6.30Q-249.57 6.49-249.57 22.26Q-249.57 38.03-248.62 38.98L-248.62 38.98Q-245.58 42.02-215.94 42.02L-215.94 42.02Q-203.97 42.02-199.79 41.35Q-195.61 40.69-195.61 40.88L-195.61 40.88Q-195.61 45.44-198.65 51.71Q-201.69 57.98-205.11 61.21L-205.11 61.21Q-207.01 63.11-239.21 63.11Q-271.42 63.11-272.56 61.59L-272.56 61.59Q-273.69 60.64-273.69 43.25Q-273.69 25.87-273.31 6.49L-273.31 6.49Q-276.74 3.45-279.87-3.01Q-283.00-9.47-283.00-14.03L-283.00-14.03Q-283.00-14.22-272.94-14.60ZM-150.77-59.06L-150.77-59.06L-151.91 19.22Q-151.91 33.85-151.34 40.88L-151.34 40.88Q-148.30 41.64-141.55 41.64Q-134.81 41.64-129.96 40.50Q-125.12 39.36-121.79 36.41Q-118.47 33.47-116.38 30.90Q-114.29 28.34-112.77 23.21L-112.77 23.21Q-110.49 16.37-108.21 5.16L-108.21 5.16Q-108.21 4.97-105.45 4.97Q-102.70 4.97-96.71 7.53Q-90.73 10.10-90.73 11.43L-90.73 11.43Q-90.73 26.06-92.25 44.49L-92.25 44.49Q-93.77 65.01-95.95 65.01Q-98.14 65.01-104.41 63.39Q-110.68 61.78-113.91 60.45L-113.91 60.45Q-131.01 63.30-158.18 63.49L-158.18 63.49L-167.68 63.68L-175.28 62.73Q-176.04 61.97-176.04 46.01L-176.04 46.01L-175.28-26.76Q-175.28-48.99-176.32-50.42Q-177.37-51.84-179.84-57.64Q-182.31-63.43-182.31-65.14L-182.31-65.14Q-182.31-65.90-178.13-67.23L-178.13-67.23Q-167.68-71.03-159.70-71.03Q-151.72-71.03-151.24-70.46Q-150.77-69.89-150.77-59.06ZM-38.86 42.78L-38.86 42.78Q-38.10 42.78-38.10 52.18Q-38.10 61.59-39.24 61.59L-39.24 61.59Q-66.79 61.59-78.76 64.25L-78.76 64.25Q-79.33 64.25-79.33 55.89Q-79.33 47.53-78.00 45.82L-78.00 45.82Q-75.72 44.68-70.59 44.68L-70.59 44.68Q-70.97 38.22-70.97-1.40Q-70.97-41.01-70.02-46.71L-70.02-46.71L-70.40-46.71Q-75.53-46.71-78.95-45.57L-78.95-45.57Q-79.33-45.57-79.33-54.22Q-79.33-62.86-78.19-64.00L-78.19-64.00Q-77.05-65.14-62.99-66.09Q-48.93-67.04-39.43-67.04L-39.43-67.04Q-38.86-67.04-38.86-64.00L-38.86-64.00L-39.43-49.94Q-39.43-49.18-40.00-49.18L-40.00-49.18Q-46.46-49.18-46.84-48.90Q-47.22-48.61-47.41-41.01L-47.41-41.01Q-48.17-10.99-48.17 10.95Q-48.17 32.90-46.65 42.97L-46.65 42.97Q-44.18 42.78-38.86 42.78ZM15.10 68.81L15.10 68.81Q13.20 68.81 12.82 68.43L12.82 68.43Q6.55 62.73-10.55 11.24Q-27.65-40.25-27.65-59.44L-27.65-59.44Q-27.65-59.82-24.99-60.96L-24.99-60.96Q-17.01-64.57-10.45-64.57Q-3.90-64.57-3.90-64.00L-3.90-64.00Q-3.14-54.69 7.41-14.79Q17.95 25.11 25.55 40.50L25.55 40.50Q27.26 43.92 28.97 42.21L28.97 42.21Q29.54 41.64 29.73 40.88L29.73 40.88Q34.86 31.19 44.46 1.45Q54.05-28.28 54.05-47.47L54.05-47.47Q54.05-49.75 49.78-52.41Q45.50-55.07 42.08-55.45L42.08-55.45Q41.89-55.83 41.89-57.54Q41.89-59.25 42.84-62.96Q43.79-66.66 44.55-67.23L44.55-67.23Q62.03-71.98 79.51-71.98L79.51-71.98Q82.36-71.60 82.36-71.22L82.36-71.22Q82.36-54.88 73.53-22.30Q64.69 10.29 55.38 35.84Q46.07 61.40 43.22 64.25L43.22 64.25Q34.86 68.81 15.10 68.81ZM101.93-14.60L101.93-14.60L102.12-35.12Q102.12-43.29 101.74-44.05L101.74-44.05Q99.65-46.14 96.33-54.12Q93.00-62.10 93.00-64.38L93.00-64.38Q95.09-66.47 159.69-66.47L159.69-66.47Q175.65-66.47 175.65-65.71L175.65-65.71Q175.65-61.72 173.85-56.97Q172.04-52.22 170.05-49.37Q168.05-46.52 167.20-46.81Q166.34-47.09 159.41-47.09Q152.47-47.09 140.12-46.24Q127.77-45.38 126.63-44.24Q125.49-43.10 125.49-23.34L125.49-23.34L125.68-15.36Q133.28-15.55 148.10-15.55Q162.92-15.55 162.92-14.98L162.92-14.98Q162.92-8.14 158.36 0.60L158.36 0.60Q156.65 3.64 156.27 3.45L156.27 3.45Q151.33 3.45 139.36 4.30Q127.39 5.16 125.49 6.30L125.49 6.30Q125.30 6.49 125.30 22.26Q125.30 38.03 126.25 38.98L126.25 38.98Q129.29 42.02 158.93 42.02L158.93 42.02Q170.90 42.02 175.08 41.35Q179.26 40.69 179.26 40.88L179.26 40.88Q179.26 45.44 176.22 51.71Q173.18 57.98 169.76 61.21L169.76 61.21Q167.86 63.11 135.66 63.11Q103.45 63.11 102.31 61.59L102.31 61.59Q101.17 60.64 101.17 43.25Q101.17 25.87 101.55 6.49L101.55 6.49Q98.13 3.45 95.00-3.01Q91.86-9.47 91.86-14.03L91.86-14.03Q91.86-14.22 101.93-14.60ZM222.58-4.72L222.58-4.72Q245.00-6.81 255.55-15.27Q266.09-23.72 266.09-31.99Q266.09-40.25 257.92-44.15Q249.75-48.04 237.21-48.04L237.21-48.04Q230.56-48.04 223.72-46.90L223.72-46.90Q222.58-38.73 222.58-4.72ZM224.67 60.83Q222.58 62.92 216.31 64.15Q210.04 65.39 205.86 65.39Q201.68 65.39 198.64 64.25L198.64 64.25L199.78-45.38Q197.31-48.42 194.94-55.45Q192.56-62.48 192.56-64.10Q192.56-65.71 192.94-66.19Q193.32-66.66 205.01-67.33Q216.69-67.99 228.66-67.99Q240.63-67.99 249.94-66.66Q259.25-65.33 269.32-62.01Q279.39-58.68 285.28-51.46Q291.17-44.24 291.17-32.94Q291.17-21.63 283.19-11.94Q275.21-2.25 261.53 4.40L261.53 4.40Q261.53 7.44 273.50 31.66Q285.47 55.89 292.50 62.92L292.50 62.92Q292.69 63.11 292.69 63.58Q292.69 64.06 289.65 65.39L289.65 65.39Q281.29 69.38 271.60 69.38L271.60 69.38L266.85 69.00Q262.67 64.82 252.32 41.26Q241.96 17.70 240.82 12.38L240.82 12.38Q238.54 13.71 222.77 16.37L222.77 16.37Q223.15 54.56 224.67 60.83L224.67 60.83ZM336.97 65.39L336.97 65.39L337.54 13.14L337.54 10.67Q332.22 3.26 318.63-21.16Q305.05-45.57 303.91-47.09L303.91-47.09Q299.54-51.46 291.94-51.46L291.94-51.46Q291.75-51.84 291.75-53.55Q291.75-55.26 292.98-58.97Q294.22-62.67 294.69-63.15Q295.17-63.62 298.21-64.19L298.21-64.19Q306.38-65.71 314.74-65.71Q323.10-65.71 323.57-65.33Q324.05-64.95 328.80-54.88L328.80-54.88Q343.62-23.34 350.65-12.70L350.65-12.70L351.03-12.70Q352.17-16.88 367.27-42.91Q382.38-68.94 384.85-68.94L384.85-68.94Q390.55-68.94 396.25-67.42Q401.95-65.90 405.18-64.10Q408.41-62.29 408.22-61.15L408.22-61.15Q398.14-49.94 381.52-25.15Q364.89-0.35 361.86 10.67L361.86 10.67Q361.48 14.47 361.48 35.18Q361.48 55.89 363.00 62.35L363.00 62.35Q363.00 64.63 356.92 65.77Q350.84 66.91 345.04 66.91Q339.25 66.91 336.97 65.39Z"/><path xml:space="preserve" font-family="Bubblegum Sans" font-size="190" font-style="italic" font-weight="normal" style="stroke: none; stroke-width: 1; stroke-dasharray: none; stroke-linecap: butt; stroke-dashoffset: 0; stroke-linejoin: miter; stroke-miterlimit: 4; is-custom-font: none; font-file-url: none; fill: rgb(71,66,66); fill-rule: nonzero; opacity: 1; white-space: pre;" d="M-266.76 144.43L-266.76 144.43Q-269.80 144.05-273.70 144.05Q-277.59 144.05-283.19 144.81Q-288.80 145.57-294.79 147.18Q-300.77 148.80-304.57 152.22Q-308.37 155.64-308.37 160.48Q-308.37 165.33-302.58 169.03Q-296.78 172.74-288.61 175.87Q-280.44 179.01-272.18 183.00Q-263.91 186.99-258.12 194.68Q-252.32 202.38-252.32 213.21L-252.32 213.21Q-252.32 232.40-270.66 245.79Q-288.99 259.19-316.92 259.19L-316.92 259.19Q-330.98 259.19-337.82 257.67L-337.82 257.67Q-339.53 255.96-339.53 237.24Q-339.53 218.53-338.77 214.73L-338.77 214.73Q-338.20 213.02-332.12 210.55Q-326.04 208.08-320.34 208.08L-320.34 208.08Q-320.34 230.50-315.59 235.25L-315.59 235.25Q-313.69 237.15-308.37 237.15L-308.37 237.15Q-296.21 237.15-287.19 230.31Q-278.16 223.47-278.16 214.16L-278.16 214.16Q-278.16 207.89-284.05 203.14Q-289.94 198.39-298.40 194.87Q-306.85 191.36-315.21 187.46Q-323.57 183.57-329.46 176.73Q-335.35 169.89-335.35 160.58L-335.35 160.58Q-335.35 146.71-318.73 135.21Q-302.10 123.72-270.56 123.72L-270.56 123.72Q-263.15 123.72-262.20 124.67L-262.20 124.67Q-262.01 125.24-262.01 127.42Q-262.01 129.61-263.34 135.88Q-264.67 142.15-266.76 144.43ZM-228.95 178.63L-228.95 178.63L-228.76 158.11Q-228.76 149.94-229.14 149.18L-229.14 149.18Q-231.23 147.09-234.56 139.11Q-237.88 131.13-237.88 128.85L-237.88 128.85Q-235.79 126.76-171.19 126.76L-171.19 126.76Q-155.23 126.76-155.23 127.52L-155.23 127.52Q-155.23 131.51-157.03 136.26Q-158.84 141.01-160.84 143.86Q-162.83 146.71-163.69 146.42Q-164.54 146.14-171.48 146.14Q-178.41 146.14-190.76 146.99Q-203.11 147.85-204.25 148.99Q-205.39 150.13-205.39 169.89L-205.39 169.89L-205.20 177.87Q-197.60 177.68-182.78 177.68Q-167.96 177.68-167.96 178.25L-167.96 178.25Q-167.96 185.09-172.52 193.83L-172.52 193.83Q-174.23 196.87-174.61 196.68L-174.61 196.68Q-179.55 196.68-191.52 197.53Q-203.49 198.39-205.39 199.53L-205.39 199.53Q-205.58 199.72-205.58 215.49Q-205.58 231.26-204.63 232.21L-204.63 232.21Q-201.59 235.25-171.95 235.25L-171.95 235.25Q-159.98 235.25-155.80 234.58Q-151.62 233.92-151.62 234.11L-151.62 234.11Q-151.62 238.67-154.66 244.94Q-157.70 251.21-161.12 254.44L-161.12 254.44Q-163.02 256.34-195.22 256.34Q-227.43 256.34-228.57 254.82L-228.57 254.82Q-229.71 253.87-229.71 236.48Q-229.71 219.10-229.33 199.72L-229.33 199.72Q-232.75 196.68-235.88 190.22Q-239.02 183.76-239.02 179.20L-239.02 179.20Q-239.02 179.01-228.95 178.63ZM-108.30 188.51L-108.30 188.51Q-85.88 186.42-75.34 177.96Q-64.79 169.51-64.79 161.24Q-64.79 152.98-72.96 149.08Q-81.13 145.19-93.67 145.19L-93.67 145.19Q-100.32 145.19-107.16 146.33L-107.16 146.33Q-108.30 154.50-108.30 188.51ZM-106.21 254.06Q-108.30 256.15-114.57 257.38Q-120.84 258.62-125.02 258.62Q-129.20 258.62-132.24 257.48L-132.24 257.48L-131.10 147.85Q-133.57 144.81-135.95 137.78Q-138.32 130.75-138.32 129.13Q-138.32 127.52-137.94 127.04Q-137.56 126.57-125.88 125.90Q-114.19 125.24-102.22 125.24Q-90.25 125.24-80.94 126.57Q-71.63 127.90-61.56 131.22Q-51.49 134.55-45.60 141.77Q-39.71 148.99-39.71 160.29Q-39.71 171.60-47.69 181.29Q-55.67 190.98-69.35 197.63L-69.35 197.63Q-69.35 200.67-57.38 224.89Q-45.41 249.12-38.38 256.15L-38.38 256.15Q-38.19 256.34-38.19 256.81Q-38.19 257.29-41.23 258.62L-41.23 258.62Q-49.59 262.61-59.28 262.61L-59.28 262.61L-64.03 262.23Q-68.21 258.05-78.57 234.49Q-88.92 210.93-90.06 205.61L-90.06 205.61Q-92.34 206.94-108.11 209.60L-108.11 209.60Q-107.73 247.79-106.21 254.06L-106.21 254.06ZM10.26 262.04L10.26 262.04Q8.36 262.04 7.98 261.66L7.98 261.66Q1.71 255.96-15.39 204.47Q-32.49 152.98-32.49 133.79L-32.49 133.79Q-32.49 133.41-29.83 132.27L-29.83 132.27Q-21.85 128.66-15.30 128.66Q-8.74 128.66-8.74 129.23L-8.74 129.23Q-7.98 138.54 2.56 178.44Q13.11 218.34 20.71 233.73L20.71 233.73Q22.42 237.15 24.13 235.44L24.13 235.44Q24.70 234.87 24.89 234.11L24.89 234.11Q30.02 224.42 39.61 194.68Q49.21 164.95 49.21 145.76L49.21 145.76Q49.21 143.48 44.93 140.82Q40.66 138.16 37.24 137.78L37.24 137.78Q37.05 137.40 37.05 135.69Q37.05 133.98 38.00 130.27Q38.95 126.57 39.71 126.00L39.71 126.00Q57.19 121.25 74.67 121.25L74.67 121.25Q77.52 121.63 77.52 122.01L77.52 122.01Q77.52 138.35 68.68 170.93Q59.85 203.52 50.54 229.07Q41.23 254.63 38.38 257.48L38.38 257.48Q30.02 262.04 10.26 262.04ZM128.44 236.01L128.44 236.01Q129.20 236.01 129.20 245.41Q129.20 254.82 128.06 254.82L128.06 254.82Q100.51 254.82 88.54 257.48L88.54 257.48Q87.97 257.48 87.97 249.12Q87.97 240.76 89.30 239.05L89.30 239.05Q91.58 237.91 96.71 237.91L96.71 237.91Q96.33 231.45 96.33 191.83Q96.33 152.22 97.28 146.52L97.28 146.52L96.90 146.52Q91.77 146.52 88.35 147.66L88.35 147.66Q87.97 147.66 87.97 139.01Q87.97 130.37 89.11 129.23L89.11 129.23Q90.25 128.09 104.31 127.14Q118.37 126.19 127.87 126.19L127.87 126.19Q128.44 126.19 128.44 129.23L128.44 129.23L127.87 143.29Q127.87 144.05 127.30 144.05L127.30 144.05Q120.84 144.05 120.46 144.33Q120.08 144.62 119.89 152.22L119.89 152.22Q119.13 182.24 119.13 204.18Q119.13 226.13 120.65 236.20L120.65 236.20Q123.12 236.01 128.44 236.01ZM193.42 258.81L193.42 258.81Q165.68 258.81 151.43 242.85Q137.18 226.89 137.18 201.62L137.18 201.62Q137.18 180.15 146.68 161.72L146.68 161.72Q152.19 150.89 160.55 142.72Q168.91 134.55 183.16 129.23Q197.41 123.91 215.46 123.91L215.46 123.91Q221.54 123.91 226.29 125.05Q231.04 126.19 231.04 126.57L231.04 126.57Q231.04 135.69 229.81 147.37Q228.57 159.06 228.38 159.25L228.38 159.25Q227.43 160.20 220.50 162.29Q213.56 164.38 210.14 164.38L210.14 164.38L210.14 163.24Q210.14 154.69 207.67 151.27Q205.20 147.85 199.12 147.85L199.12 147.85Q185.63 147.85 174.04 162.00Q162.45 176.16 162.45 200.86L162.45 200.86Q162.45 213.97 168.91 224.42L168.91 224.42Q172.33 229.93 178.88 233.35Q185.44 236.77 194.37 236.77L194.37 236.77Q212.23 236.77 229.14 220.24L229.14 220.24Q229.90 220.24 232.28 222.61Q234.65 224.99 236.93 228.98L236.93 228.98Q241.68 236.58 241.68 238.29Q241.68 240.00 235.79 244.65Q229.90 249.31 217.93 254.06Q205.96 258.81 193.42 258.81ZM262.20 178.63L262.20 178.63L262.39 158.11Q262.39 149.94 262.01 149.18L262.01 149.18Q259.92 147.09 256.60 139.11Q253.27 131.13 253.27 128.85L253.27 128.85Q255.36 126.76 319.96 126.76L319.96 126.76Q335.92 126.76 335.92 127.52L335.92 127.52Q335.92 131.51 334.12 136.26Q332.31 141.01 330.31 143.86Q328.32 146.71 327.47 146.42Q326.61 146.14 319.68 146.14Q312.74 146.14 300.39 146.99Q288.04 147.85 286.90 148.99Q285.76 150.13 285.76 169.89L285.76 169.89L285.95 177.87Q293.55 177.68 308.37 177.68Q323.19 177.68 323.19 178.25L323.19 178.25Q323.19 185.09 318.63 193.83L318.63 193.83Q316.92 196.87 316.54 196.68L316.54 196.68Q311.60 196.68 299.63 197.53Q287.66 198.39 285.76 199.53L285.76 199.53Q285.57 199.72 285.57 215.49Q285.57 231.26 286.52 232.21L286.52 232.21Q289.56 235.25 319.20 235.25L319.20 235.25Q331.17 235.25 335.35 234.58Q339.53 233.92 339.53 234.11L339.53 234.11Q339.53 238.67 336.49 244.94Q333.45 251.21 330.03 254.44L330.03 254.44Q328.13 256.34 295.93 256.34Q263.72 256.34 262.58 254.82L262.58 254.82Q261.44 253.87 261.44 236.48Q261.44 219.10 261.82 199.72L261.82 199.72Q258.40 196.68 255.26 190.22Q252.13 183.76 252.13 179.20L252.13 179.20Q252.13 179.01 262.20 178.63Z"/></g>
<g transform="matrix(1 0 0 1 506.5 243.7165)" style="filter: url(#SVGID_450);" id="881409">
<filter id="SVGID_450" y="-27.87%" height="155.74%" x="-27.68%" width="155.36%">
	<feGaussianBlur in="SourceAlpha" stdDeviation="19"/>
	<feOffset dx="-71" dy="3" result="oBlur"/>
	<feFlood flood-color="rgb(0,0,0)" flood-opacity="1"/>
	<feComposite in2="oBlur" operator="in"/>
	<feMerge>
		<feMergeNode/>
		<feMergeNode in="SourceGraphic"/>
	</feMerge>
</filter>
		
<path xml:space="preserve" font-family="Bitter" font-size="461" font-style="normal" font-weight="bold" style="stroke: rgb(25,24,24); stroke-opacity: 0.77; stroke-width: 18; stroke-dasharray: none; stroke-linecap: butt; stroke-dashoffset: 0; stroke-linejoin: miter; stroke-miterlimit: 4; is-custom-font: none; font-file-url: none; fill: rgb(168,155,74); fill-opacity: 0.82; fill-rule: nonzero; opacity: 1; white-space: pre;" d="M-356.58 144.82L-498.57 144.82L-498.57 111.63L-457.54 99.64L-464.46 109.32L-464.46-145.61L-455.24-132.24L-498.57-144.23L-498.57-177.42L-399.92-179.73L-265.77-179.73L-265.77-95.82L-304.95-95.82L-313.71-139.16L-301.72-132.24L-408.68-132.24L-398.53-142.38L-398.53-32.21L-408.68-41.43L-301.26-41.43L-301.26 6.06L-408.68 6.06L-398.53-4.55L-398.53 109.32L-406.83 99.64L-356.58 111.63L-356.58 144.82ZM-51.86-179.73L-11.29-179.73Q22.36-179.73 49.79-170.04Q77.22-160.36 96.58-140.54Q115.94-120.72 126.31-91.44Q136.69-62.17 136.69-22.99L136.69-22.99Q136.69 31.87 117.09 69.21Q97.50 106.56 62.24 125.69Q26.97 144.82-20.98 144.82L-20.98 144.82L-156.51 144.82L-156.51 111.63L-113.64 99.18L-122.40 112.55L-122.40-145.61L-112.71-132.24L-156.51-144.23L-156.51-177.42L-51.86-179.73ZM-66.61 97.34L-17.75 97.34Q-3.00 97.34 11.76 92.96Q26.51 88.58 38.72 76.59Q50.94 64.60 58.32 41.55Q65.69 18.50 65.69-19.30L65.69-19.30Q65.69-55.72 58.78-78.08Q51.86-100.43 40.34-112.19Q28.81-123.94 14.75-128.09Q0.69-132.24-13.14-132.24L-13.14-132.24L-66.61-132.24L-56.47-142.38L-56.47 107.48L-66.61 97.34ZM328.00-98.13L328.00-98.13Q328.00-84.76 337.22-76.00Q346.44-67.24 361.19-61.02Q375.95-54.79 393.92-49.03Q411.90-43.27 429.42-36.12Q446.94-28.98 461.92-18.15Q476.90-7.31 485.89 9.28Q494.88 25.88 494.88 50.77L494.88 50.77Q494.88 84.89 477.14 107.02Q459.39 129.14 429.88 139.98Q400.38 150.81 364.42 150.81L364.42 150.81Q339.99 150.81 314.40 145.97Q288.82 141.13 263.92 131.45L263.92 131.45L266.23 43.86L304.49 43.86L314.17 99.64L308.18 88.58Q322.01 95.03 337.45 98.49Q352.90 101.95 367.65 101.95L367.65 101.95Q384.70 101.95 399.00 97.34Q413.29 92.73 421.58 83.04Q429.88 73.36 429.88 59.07L429.88 59.07Q429.88 44.78 421.12 35.56Q412.36 26.34 397.38 20.12Q382.40 13.89 364.88 8.59Q347.36 3.29 329.62-3.62Q311.87-10.54 296.88-21.14Q281.90-31.74 273.14-48.11Q264.38-64.48 264.38-89.37L264.38-89.37Q264.38-122.10 280.06-143.08Q295.73-164.05 322.47-174.65Q349.21-185.26 382.86-185.26L382.86-185.26Q406.83-185.26 432.65-180.19Q458.46-175.12 484.28-164.97L484.28-164.97L479.21-84.30L440.02-84.30L430.34-134.55L437.72-127.17Q426.19-131.78 413.06-134.32Q399.92-136.85 386.55-136.85L386.55-136.85Q370.87-136.85 357.51-132.93Q344.14-129.02 336.07-120.49Q328.00-111.96 328.00-98.13Z"/></g>
</svg>